<svg xmlns="http://www.w3.org/2000/svg" width="25" height="20.533" viewBox="0 0 25 20.533"><path fill="#FFF" d="M9.657 13.63c.163.442.302.846.47 1.24.028.068.176.118.27.12.556.012 1.112.006 1.668.006h8.123c1.54 0 2.793 1.28 2.745 2.797-.05 1.615-1.308 2.793-2.908 2.724-1.452-.062-2.606-1.414-2.514-2.957.013-.216.064-.43.1-.665h-5.494c.224.937.122 1.796-.455 2.556-.405.537-.937.873-1.585 1.02-1.236.278-2.524-.402-3.04-1.607-.462-1.076-.293-2.635 1.228-3.583-.03-.098-.056-.206-.094-.31-1.585-4.24-3.174-8.477-4.75-12.72-.1-.273-.227-.362-.51-.353-.667.022-1.337.02-2.006 0-.5-.012-.843-.35-.897-.828C-.046.602.223.17.657.054c.148-.04.306-.05.46-.05C1.982 0 2.847 0 3.71.005c.667.002.915.185 1.155.823.272.726.56 1.447.81 2.18.098.295.227.395.542.394 5.89-.01 11.778-.008 17.667-.008.906 0 1.3.536 1.033 1.418-.81 2.67-1.625 5.337-2.44 8.004-.187.61-.46.814-1.084.814-3.768.002-7.535 0-11.305 0h-.43zm2.277-5.454l-.224-2.88H6.562c.024.09.038.16.062.226.298.805.604 1.608.893 2.416.072.203.173.264.382.262 1.243-.01 2.488-.005 3.733-.006.09 0 .18-.01.3-.018zm6.08-2.88l-.22 2.88h4.155c.288-.955.58-1.912.873-2.88h-4.81zm-.93.01h-4.438l.222 2.865h3.993c.077-.96.15-1.902.223-2.863zm-5.078 3.865h-4.02c.297.796.59 1.557.863 2.325.07.197.168.244.36.242.905-.01 1.81-.003 2.716-.005.087 0 .175-.013.277-.022l-.197-2.54zm4.585 2.545l.193-2.554H12.94l.197 2.555h3.454zm.93.016c1.096 0 2.152.003 3.21-.005.057 0 .15-.07.17-.127.255-.806.5-1.614.748-2.433h-3.93l-.198 2.566zm2.703 5.16c-.485-.002-.862.376-.86.868 0 .49.38.875.86.872.46-.004.84-.385.853-.856.013-.472-.38-.88-.853-.883zm-10.67 0c-.477-.014-.86.342-.882.82-.02.498.337.9.82.917.476.017.88-.368.892-.853.01-.468-.365-.868-.83-.883z"/></svg>