<svg xmlns="http://www.w3.org/2000/svg" xmlns:xlink="http://www.w3.org/1999/xlink" viewBox="0 0 512.247 458.5"><defs><path id="a" d="M.247-26.5h512v512h-512z"/></defs><clipPath id="b"><use xlink:href="#a" overflow="visible"/></clipPath><path clip-path="url(#b)" fill="#C6D3EA" d="M422.547 416.1c5.8 0 13.4-2.7 19.6-4.5 1.4 5.4 4.9 8 4.9 13.4 0 9.8-12 33.5-21 33.5-13.4 0-28.1-33-28.1-42.4 0-7.1 24.1 0 24.6 0M500.647 189.3c7.1 9.4 11.6 33.5 11.6 46.9 0 9.8-2.7 23.7-6.7 27.7v12.5c-2.3 3.6-.9 5.3-3.1 8.9-8.1 12.5-16.1 17-20.6 31.2-3.5 10.7-12.9 24.6-12.9 40.2v-.9c-4.9 20.5-41.5 11.1-45.1 32.6-3.6-.4-21.9-10.7-22.3-13.4-10.2.9-6.7 9.8-17.9 9.8-17.4 0-46-11.6-46-29.9 0-6.7-5.8-12.1-6.3-17.9 0 0-.5-1.8-.5-2.2-3.1 1.8-5.3 2.2-8.9 3.1h-5.4c1.3-2.7 3.1-5.4 3.1-9.8 0-5.4-2.7-7.1-4.5-8.9 0 1.3-.9 3.1-.9 4.5-4 1.8-4.5 9.8-11.2 9.8-2.2 0-4.5-2.3-4.5-4.5 11.2-2.2 13.4-25.5 13-32.2-8.1 8-19.2 31.3-28.6 31.3-5.4 0-3.6-8-3.6-8-3.1 0-12.9-21.9-16.5-26.8-7.2-8.9-33.5-13.4-48.2-13.4-16.1 0-19.2 7.1-29 10.3-22.8 7.6-50.9-.4-54.5 22.3-9.4.9-17 3.1-26.8 3.1-7.2-3.6-7.2 0-12.5 0-15.6 0-22.3 14.7-42.4 14.7-7.6 0-29-9.4-29-15.6 0-6.7 10.2-9.8 10.2-20.1 0-12.9-6.7-20.1-8.9-28.1-5.3-19.7-6.7-25.9-12.5-43.3-2.2-6.7-11.1-8.9-8.9-15.7.9-1.8 1.3-3.6 2.7-5.8.9 2.2 2.7 4.5 4 5.8 1.3-1.8 0-3.6 0-5.8 0-6.7-5.4-12.1-5.4-23.2v-25.9c0-3.6 3.1-4.5 4.9-5.4.4 1.3.4 3.1.4 4.5 8.5-.9 18.7-12.1 23.6-17 5.4-5.4 21.5-6.3 29.9-7.6 16.1-2.7 52.7-15.2 52.7-30.4v-7.6c0-4.5 1.3-8.9 5.8-11.2 2.3 4 4.9 5.8 6.7 8.9 4.9-3.1 2.7-9.8 4.9-14.7 3.6 1.8 5.8 3.6 9.4 3.6 0-12.5 8.9-14.3 9.8-24.5 12.1 0 14.3-8.9 23.7-8.9 8 0 12.5 8.9 13.4 17 2.2-3.1 5.8-4.9 9.8-4.9 2.2 0 5.8 3.1 6.7 3.6 2.7-4 1.3-7.1 1.3-11.1 0-6.3 6.7-9.4 6.7-15.7 0-6.2 17.9-10.3 25.5-10.3 3.1 0 6.7-2.7 8-3.1-2.7-4-7.2-5.3-8-10.3 15.2 6.3 24.1 12.5 40.2 12.5 5.8 0 7.6-3.6 12.5-3.6 2.7 0 8.9 4.5 8.9 8.1 0 5.8-6.7 6.2-10.3 8.9l-4.9 22.4c0 3.6 6.3 2.7 8.9 4.5 2.7 1.8 2.7 8.5 4.5 8.9 12.1 4.5 18.8 6.7 29.9 11.2 6.3 2.2 8.5 12 17 12 13.8 0 16.5-26.3 18.7-36.6V15.7c7.1-5.4 4.9-11.2 12.5-15.2 1.3 12.1 7.1 20.1 9.8 28.6 1.8 6.2-.5 14.3 4.5 17.9 4.5 1.3 12.9 4 14.7 4.9 5.3 3.6 5.3 17.9 7.6 25 4 12.1 7.6 17.9 11.2 29 3.6 10.7 22.8 14.7 30.4 22.3 5.4 5.4 6.2 13.8 8 20.1 1.8 5.8 8.9 5.8 14.7 5.8 0 17.8 17 25.4 25.5 33.9l-.5 1.3z"/></svg>